<svg id="Capa_1" data-name="Capa 1" xmlns="http://www.w3.org/2000/svg" viewBox="0 0 399.27 399.26"><defs><style>.cls-1{fill:#fff;}</style></defs><g id="DUD0fm"><path class="cls-1" d="M399.25,199.64q0,42.9,0,85.81c-.06,57-38.13,102.46-94.31,112.33a112.81,112.81,0,0,1-19.37,1.4q-85.8.17-171.62.05c-57.08,0-102.48-38-112.45-94.19a109.11,109.11,0,0,1-1.4-18.87q-.15-86.55,0-173.12C.12,56.66,39,10.74,94.59,1.4A115.54,115.54,0,0,1,113.47.08q86.06-.15,172.12,0c57,.05,102.55,38.34,112.23,94.43a117,117,0,0,1,1.37,19.37C399.33,142.43,399.25,171,399.25,199.64ZM32,199.3c0,29.11-.06,58.22,0,87.33.11,45.38,35.29,80.57,80.75,80.65q86.84.15,173.66,0c45.74-.06,80.85-35.23,80.9-81q.12-86.58,0-173.15C367.25,67,332.16,32,286,32q-86.34-.07-172.66,0C67,32,32,67,32,113.47Q31.93,156.39,32,199.3Z"/><path class="cls-1" d="M295.45,199.6a95.9,95.9,0,0,1-96.28,95.81c-53-.19-95.45-43.31-95.33-96.76.13-52.41,43.68-95.08,96.77-94.82C252.71,104.09,295.6,147.4,295.45,199.6Zm-159.67-.13a64,64,0,0,0,63.57,64c35,.18,64.07-28.54,64.16-63.48.09-35.29-28.36-64.15-63.35-64.26A63.93,63.93,0,0,0,135.78,199.47Z"/><path class="cls-1" d="M303.55,119.75a23.93,23.93,0,1,1,23.82-24.29A24,24,0,0,1,303.55,119.75Z"/></g></svg>