<svg id="Capa_1" data-name="Capa 1" xmlns="http://www.w3.org/2000/svg" viewBox="0 0 612.18 399.96"><defs><style>.cls-1{fill:#fff;}</style></defs><path class="cls-1" d="M612.18,0H0V400H612.18ZM479.8,317.29a12.51,12.51,0,0,0,3.28,7.85c10.12,10.43,20.5,20.61,31,30.68,2.58,2.48,2.16,5.26,1.5,7.86-.23.89-3.08,1.57-4.74,1.57q-76.92.12-153.84,0c-1.82,0-4.94-.48-5.24-1.43-.9-2.87-1-5.85,1.86-8.51q16-15.09,31.49-30.75a12.46,12.46,0,0,0,3.3-7.89q.27-92.84.13-185.67c0-.53-.08-1.06-.13-1.59l-.94-.24c-2.62,6.51-5.29,13-7.86,19.53q-27.36,69.51-54.68,139.05c-9.49,24.13-19,48.23-28.41,72.41-1.22,3.14-2.87,4-6.2,4.38-6.47.67-9.63-1.57-12.4-7.71-21.57-47.89-43.62-95.57-65.51-143.32Q193.48,172.23,174.58,131c-.34-.73-.77-1.4-1.67-3a36.69,36.69,0,0,0-.5,3.81q0,78.77,0,157.52c0,5.3,2.26,9.67,5.55,13.66,14,17,28.07,33.92,41.88,51.07,1.58,2,1.89,5.1,2.27,7.77.1.73-1.57,1.95-2.65,2.53-.74.4-1.86.1-2.81.1q-56.92,0-113.85-.06c-1.83,0-5.19-.85-5.22-1.42-.12-2.54-.09-5.76,1.35-7.59C107.8,344,117.07,333,126.23,321.83c5.44-6.61,11.33-12.9,16.21-19.9,2.5-3.59,4.54-8.4,4.56-12.68.29-63.11.21-126.22.18-189.33,0-5.1-2-9.38-5.27-13.31-12.63-15-25.18-30-37.49-45.18-1.41-1.73-1.5-4.78-1.53-7.23,0-.75,2.19-2.15,3.42-2.2,6-.23,12-.11,18-.11,31.83,0,63.66.06,95.48-.07,3.49,0,5.21,1.06,6.68,4.31q36.95,81.38,74.16,162.65c5.68,12.45,11.31,24.93,17.33,38.2.93-1.85,1.59-2.95,2.06-4.13q25.41-63.3,50.8-126.61c9.38-23.41,18.79-46.82,28-70.29,1.26-3.21,3.05-4.14,6.38-4.13,35.36.11,70.73.05,106.09.14,1.8,0,4.76.58,5.17,1.66,1,2.56.95,5.5-1.57,7.84-6.27,5.83-12.39,11.82-18.57,17.74-4.51,4.32-9.27,8.42-13.43,13.06a12.45,12.45,0,0,0-3.08,7.54Q479.55,198.54,479.8,317.29Z"/></svg>