<svg id="Capa_1" data-name="Capa 1" xmlns="http://www.w3.org/2000/svg" viewBox="0 0 399.38 390"><defs><style>.cls-1{fill:#fff;}</style></defs><g id="O5cW2e"><path class="cls-1" d="M395.58,195q0,82.78,0,165.55c0,6.7-1.15,12.94-5.2,18.39a28.08,28.08,0,0,1-23.71,11.89H42c-3.29,0-6.58,0-9.87,0a28,28,0,0,1-28.3-27.58c0-1,0-2,0-3q0-165.44-.05-330.86C3.75,22.21,5,15.52,9.69,9.83A28.22,28.22,0,0,1,32.54-.84q136.2,0,272.38,0c20.89,0,41.78,0,62.67,0a27.86,27.86,0,0,1,27.59,22.9,43,43,0,0,1,.39,7.62Q395.6,112.36,395.58,195ZM212.24,171.12v-22c0-3.58,0-3.59-3.47-3.59H159.42c-3.39,0-3.39,0-3.39,3.42q0,90.56,0,181.11c0,3.29,0,3.3,3.2,3.3q26,0,52.06,0c3.34,0,3.34,0,3.34-3.42,0-30.18-.16-60.37.12-90.55a133.73,133.73,0,0,1,2.55-22.7,27.91,27.91,0,0,1,9.59-16.83c9.1-7.56,19.83-8.38,30.81-6.27s16.64,10,19.35,20.39c2.11,8,2.3,16.26,2.32,24.47q.11,45.9,0,91.79c0,2.5.7,3.19,3.19,3.18q26.4-.15,52.81,0c2.5,0,3.21-.69,3.2-3.19-.09-23.6.06-47.21-.09-70.81-.11-16.76-.34-33.53-1-50.28a93.56,93.56,0,0,0-7.79-34.42c-5.6-12.69-14.56-22.2-27.47-27.61-14.21-6-29.09-7.28-44.23-5.38a60.26,60.26,0,0,0-37,18.44C217.9,163.38,215.37,167.15,212.24,171.12ZM61.35,239.43q0,45.38-.05,90.76c0,2.45.59,3.23,3.14,3.21,17.43-.11,34.86,0,52.29-.06,3.25,0,3.26,0,3.26-3.23V148.83c0-3.31,0-3.32-3.24-3.32h-52c-3.35,0-3.35,0-3.35,3.41Q61.35,194.18,61.35,239.43ZM56.8,86.4a34,34,0,0,0,34,34.31c18.71,0,34.48-15.34,34.29-34.15A34.12,34.12,0,0,0,56.8,86.4Z"/></g></svg>